/* XPM */
static char * novprog_xpm[] = {
"32 32 275 2",
"  	c None",
". 	c #344281",
"+ 	c #384480",
"@ 	c #3C4782",
"# 	c #414C85",
"$ 	c #6276D7",
"% 	c #6679D8",
"& 	c #6A7DD9",
"* 	c #6E80DA",
"= 	c #7183DB",
"- 	c #7587DC",
"; 	c #798ADD",
"> 	c #7C8DDE",
", 	c #8090DF",
"' 	c #8392E0",
") 	c #5C71D4",
"! 	c #2F3D7D",
"~ 	c #384067",
"{ 	c #3E466C",
"] 	c #434B70",
"^ 	c #495074",
"/ 	c #6D82E6",
"( 	c #7286E7",
"_ 	c #778AE8",
": 	c #7C8EE9",
"< 	c #8092EA",
"[ 	c #8597EA",
"} 	c #8A9BEB",
"| 	c #8F9FEC",
"1 	c #92A2ED",
"2 	c #94A3ED",
"3 	c #687DE6",
"4 	c #5369C9",
"5 	c #303B79",
"6 	c #373F67",
"7 	c #6C81E6",
"8 	c #7186E7",
"9 	c #768AE8",
"0 	c #7B8EE9",
"a 	c #7F92EA",
"b 	c #8496EA",
"c 	c #899AEB",
"d 	c #8D9DEC",
"e 	c #90A0EC",
"f 	c #91A1EC",
"g 	c #5568CA",
"h 	c #3D456B",
"i 	c #424A6F",
"j 	c #485074",
"k 	c #7085E7",
"l 	c #7589E8",
"m 	c #7A8DE9",
"n 	c #7F91E9",
"o 	c #8394EA",
"p 	c #8799EB",
"q 	c #8B9BEB",
"r 	c #677DE5",
"s 	c #2F3A78",
"t 	c #363E66",
"u 	c #3C446A",
"v 	c #41496F",
"w 	c #474F73",
"x 	c #6B80E6",
"y 	c #7084E7",
"z 	c #7488E8",
"A 	c #798CE8",
"B 	c #7D90E9",
"C 	c #8193EA",
"D 	c #8899EB",
"E 	c #8B9CEC",
"F 	c #667CE5",
"G 	c #5467CA",
"H 	c #2E3977",
"I 	c #353D65",
"J 	c #3B436A",
"K 	c #40486E",
"L 	c #464E72",
"M 	c #6A7FE6",
"N 	c #6F84E7",
"O 	c #7387E7",
"P 	c #788BE8",
"Q 	c #8697EB",
"R 	c #657BE5",
"S 	c #5367C9",
"T 	c #343C64",
"U 	c #3A4269",
"V 	c #3F476D",
"W 	c #454D72",
"X 	c #687EE6",
"Y 	c #8395EA",
"Z 	c #2D3877",
"` 	c #333B64",
" .	c #394168",
"..	c #3F466C",
"+.	c #7E90E9",
"@.	c #8294EA",
"#.	c #D2D9F7",
"$.	c #FFFFFF",
"%.	c #CED5F7",
"&.	c #6379E5",
"*.	c #5266C9",
"=.	c #2C3776",
"-.	c #323B63",
";.	c #6E83E7",
">.	c #D1D8F7",
",.	c #CDD5F6",
"'.	c #6279E5",
").	c #5165C9",
"!.	c #2B3775",
"~.	c #303962",
"{.	c #7C8FE9",
"].	c #D0D7F7",
"^.	c #CDD4F6",
"/.	c #6177E4",
"(.	c #4F63C8",
"_.	c #2A3675",
":.	c #2F3861",
"<.	c #788CE8",
"[.	c #CCD4F6",
"}.	c #5F76E4",
"|.	c #293574",
"1.	c #2D365F",
"2.	c #6178E4",
"3.	c #9DABEF",
"4.	c #CFD6F7",
"5.	c #CCD3F6",
"6.	c #5D75E4",
"7.	c #4D61C8",
"8.	c #283473",
"9.	c #2B345E",
"0.	c #9BA9EE",
"a.	c #CED5F6",
"b.	c #CBD2F6",
"c.	c #5C73E4",
"d.	c #4B60C7",
"e.	c #273373",
"f.	c #2A325C",
"g.	c #2E3760",
"h.	c #9AA8EE",
"i.	c #CAD2F6",
"j.	c #5971E3",
"k.	c #4A5FC7",
"l.	c #263272",
"m.	c #28305B",
"n.	c #2C355F",
"o.	c #313A62",
"p.	c #5B73E3",
"q.	c #99A7EE",
"r.	c #C9D1F6",
"s.	c #5870E3",
"t.	c #495EC6",
"u.	c #243071",
"v.	c #262F5A",
"w.	c #2A335D",
"x.	c #5D74E4",
"y.	c #97A6EE",
"z.	c #9EACEF",
"A.	c #CBD3F6",
"B.	c #C9D0F6",
"C.	c #556EE2",
"D.	c #475CC6",
"E.	c #232F70",
"F.	c #242D58",
"G.	c #576FE3",
"H.	c #5A72E3",
"I.	c #95A5ED",
"J.	c #9CAAEE",
"K.	c #C8D0F5",
"L.	c #546CE2",
"M.	c #455AC5",
"N.	c #212D6F",
"O.	c #212A56",
"P.	c #556DE2",
"Q.	c #647AE5",
"R.	c #C7CFF5",
"S.	c #526AE2",
"T.	c #4459C5",
"U.	c #202C6E",
"V.	c #1F2855",
"W.	c #526BE2",
"X.	c #92A1ED",
"Y.	c #6077E4",
"Z.	c #98A7EE",
"`.	c #C6CEF5",
" +	c #4F68E1",
".+	c #4258C4",
"++	c #1F2B6E",
"@+	c #1C2652",
"#+	c #252E59",
"$+	c #29315C",
"%+	c #5069E2",
"&+	c #536CE2",
"*+	c #90A0ED",
"=+	c #5E75E4",
"-+	c #96A5ED",
";+	c #C5CDF5",
">+	c #4D66E1",
",+	c #4056C4",
"'+	c #1D2A6C",
")+	c #1A2451",
"!+	c #1E2754",
"~+	c #222B57",
"{+	c #27305A",
"]+	c #4E67E1",
"^+	c #516AE2",
"/+	c #C6CFF5",
"(+	c #C4CDF5",
"_+	c #4B65E1",
":+	c #3E54C3",
"<+	c #1B286B",
"[+	c #17214F",
"}+	c #202955",
"|+	c #4E68E1",
"1+	c #8D9EEC",
"2+	c #C5CEF5",
"3+	c #C3CCF5",
"4+	c #4963E0",
"5+	c #3D53C3",
"6+	c #19266A",
"7+	c #161F4D",
"8+	c #192350",
"9+	c #1D2653",
"0+	c #C2CBF4",
"a+	c #4661E0",
"b+	c #3B51C2",
"c+	c #182569",
"d+	c #131C4B",
"e+	c #16204E",
"f+	c #445FE0",
"g+	c #394FC1",
"h+	c #162368",
"i+	c #101A49",
"j+	c #141D4C",
"k+	c #1B2552",
"l+	c #4A64E1",
"m+	c #4C66E1",
"n+	c #425DDF",
"o+	c #364DC1",
"p+	c #0D1747",
"q+	c #111B4A",
"r+	c #151E4D",
"s+	c #4660E0",
"t+	c #4862E0",
"u+	c #4A64E0",
"v+	c #3F5ADF",
"w+	c #344CC0",
"x+	c #0C1646",
"y+	c #0E1847",
"z+	c #121B4A",
"A+	c #415CDF",
"B+	c #435EDF",
"C+	c #4560E0",
"D+	c #3C58DE",
"E+	c #324ABF",
"F+	c #0F1948",
"G+	c #425EDF",
"H+	c #4762E0",
"I+	c #3A56DE",
"J+	c #3048BF",
"K+	c #17266C",
"L+	c #3E59DE",
"M+	c #3F5BDF",
"N+	c #3754DD",
"O+	c #2B43B4",
"P+	c #162569",
"Q+	c #152366",
"R+	c #2D44B3",
"S+	c #2E45B3",
"T+	c #3046B4",
"U+	c #3248B5",
"V+	c #3349B5",
"W+	c #344AB5",
"X+	c #354BB6",
"Y+	c #364CB6",
"Z+	c #283EA7",
"                                                                ",
"        . + @ # $ % & * = - ; > , ' , > ; - = * & % $ )         ",
"      ! ~ { ] ^ / ( _ : < [ } | 1 2 1 | } [ < : _ ( / 3 4       ",
"      5 6 { ] ^ 7 8 9 0 a b c d e f e d c b a 0 9 8 7 3 g       ",
"      5 6 h i j 7 k l m n o p q d | d q p o n m l k 7 r g       ",
"      s t u v w x y z A B C [ D q E q D [ C B A z y x F G       ",
"      H I J K L M N O P : a o Q p D p Q o a : P O N M R S       ",
"      H T U V W X / 8 9 m B < Y [ Q [ Y < B m 9 8 / X R S       ",
"      Z `  ...] 3 7 k z P : +.< @.o @.< +.#.$.$.%.7 3 &.*.      ",
"      =.-.6 h i F M ;.( 9 A : +.n a n +.: >.$.$.,.M F '.).      ",
"      !.~.t J K R X 7 k z _ A 0 {.{.{.0 A ].$.$.^.X R /.(.      ",
"      _.:.T U ..&.r x ;.8 z _ <.A m A <._ ].$.$.[.r &.}.(.      ",
"      |.1.-.~ h 2.R 3.$.$.$.z l 9 _ 9 l z 4.$.$.5.R 2.6.7.      ",
"      8.9.~.I J }.&.0.$.$.$.8 O z z z O 8 a.$.$.b.&.}.c.d.      ",
"      e.f.g.` ~ 6./.h.$.$.$.;.y k k k y ;.^.$.$.i./.6.j.k.      ",
"      l.m.n.o.t p.}.q.$.$.$.7 7 / ;./ 7 7 5.$.$.r.}.p.s.t.      ",
"      u.v.w.:.` j.x.y.$.$.$.X M $.$.$.z.X A.$.$.B.x.j.C.D.      ",
"      E.F.m.n.o.G.H.I.$.$.$.F r $.$.$.J.F i.$.$.K.H.G.L.M.      ",
"      N.O.v.w.g.P.s.2 $.$.$.&.Q.$.$.$.h.&.r.$.$.R.s.P.S.T.      ",
"      U.V.F.m.9.W.C.X.$.$.$.Y.2.$.$.$.Z.Y.K.$.$.`.C.W. +.+      ",
"      ++@+O.#+$+%+&+*+$.$.$.6.=+$.$.$.-+6.R.$.$.;+&+%+>+,+      ",
"      '+)+!+~+{+]+^+| $.$.$.H.p.$.$.$.2 H./+$.$.(+^+]+_+:+      ",
"      <+[+@+}+F._+|+1+$.$.$.s.j.$.$.$.1 s.2+$.$.3+|+_+4+5+      ",
"      6+7+8+9+O.4+_+E $.$.$.P.C.$.$.$.*+P.(+$.$.0+_+4+a+b+      ",
"      c+d+e+)+!+a+4+_+]+ +^+S.W.&+&+&+W.S.^+ +]+_+4+a+f+g+      ",
"      h+i+j+[+k+f+a+4+l+m+]+ +%+%+^+%+%+ +]+m+l+4+a+f+n+o+      ",
"      h+p+q+r+[+n+f+s+t+u+_+m+>+]+]+]+>+m+_+u+t+s+f+n+v+w+      ",
"      h+x+y+z+r+v+A+B+C+a+t+4+u+l+l+l+u+4+t+a+C+B+A+v+D+E+      ",
"      h+x+x+F+z+D+v+A+G+f+C+a+H+H+H+H+H+a+C+f+G+A+v+D+I+J+      ",
"      K+x+x+x+F+I+D+L+M+A+G+B+f+f+C+f+f+B+G+A+M+L+D+I+N+O+      ",
"        P+Q+Q+Q+R+S+T+U+V+W+W+X+Y+Y+Y+X+W+W+V+U+T+S+R+Z+        ",
"                                                                "};
